<svg xmlns="http://www.w3.org/2000/svg" id="Layer_1" data-name="Layer 1" viewBox="0 0 188 100"><defs><style>
      .cls-1 {
        fill: #252f3e;
      }

      .cls-2 {
        fill: #494949;
      }

      .cls-3 {
        fill: #f90;
      }
    </style></defs><g><path class="cls-1" d="m23.85,43.08c0,1.04.11,1.89.31,2.51.23.62.51,1.29.9,2.03.14.23.2.45.2.65,0,.28-.17.56-.53.84l-1.77,1.18c-.25.17-.51.25-.73.25-.28,0-.56-.14-.84-.39-.39-.42-.73-.87-1.01-1.32-.28-.48-.56-1.01-.87-1.66-2.2,2.59-4.95,3.88-8.28,3.88-2.36,0-4.25-.68-5.63-2.03-1.38-1.35-2.08-3.15-2.08-5.4,0-2.39.84-4.33,2.56-5.8s4-2.2,6.9-2.2c.96,0,1.94.08,2.98.23s2.11.37,3.24.62v-2.05c0-2.14-.45-3.63-1.32-4.5-.9-.87-2.42-1.29-4.59-1.29-.99,0-2,.11-3.04.37s-2.05.56-3.04.96c-.45.2-.79.31-.99.37s-.34.08-.45.08c-.39,0-.59-.28-.59-.87v-1.38c0-.45.06-.79.2-.99s.39-.39.79-.59c.99-.51,2.17-.93,3.55-1.27,1.38-.37,2.84-.53,4.39-.53,3.35,0,5.8.76,7.37,2.28,1.55,1.52,2.34,3.83,2.34,6.92v9.12h.06Zm-11.43,4.28c.93,0,1.89-.17,2.9-.51s1.91-.96,2.67-1.8c.45-.53.79-1.13.96-1.8.17-.68.28-1.49.28-2.45v-1.18c-.82-.2-1.69-.37-2.59-.48s-1.77-.17-2.65-.17c-1.89,0-3.27.37-4.19,1.13s-1.38,1.83-1.38,3.24c0,1.32.34,2.31,1.04,2.98.68.7,1.66,1.04,2.96,1.04Zm22.6,3.04c-.51,0-.84-.08-1.07-.28-.23-.17-.42-.56-.59-1.1l-6.61-21.76c-.17-.56-.25-.93-.25-1.13,0-.45.23-.7.68-.7h2.76c.53,0,.9.08,1.1.28.23.17.39.56.56,1.1l4.73,18.63,4.39-18.63c.14-.56.31-.93.53-1.1s.62-.28,1.13-.28h2.25c.53,0,.9.08,1.13.28.23.17.42.56.53,1.1l4.45,18.86,4.87-18.86c.17-.56.37-.93.56-1.1.23-.17.59-.28,1.1-.28h2.62c.45,0,.7.23.7.7,0,.14-.03.28-.06.45s-.08.39-.2.7l-6.78,21.76c-.17.56-.37.93-.59,1.1s-.59.28-1.07.28h-2.42c-.53,0-.9-.08-1.13-.28s-.42-.56-.53-1.13l-4.36-18.16-4.33,18.13c-.14.56-.31.93-.53,1.13s-.62.28-1.13.28h-2.42Zm36.17.76c-1.46,0-2.93-.17-4.33-.51s-2.51-.7-3.24-1.13c-.45-.25-.76-.53-.87-.79s-.17-.53-.17-.79v-1.44c0-.59.23-.87.65-.87.17,0,.34.03.51.08.17.06.42.17.7.28.96.42,2,.76,3.1.99,1.13.23,2.22.34,3.35.34,1.77,0,3.15-.31,4.11-.93.96-.62,1.46-1.52,1.46-2.67,0-.79-.25-1.44-.76-1.97-.51-.53-1.46-1.01-2.84-1.46l-4.08-1.27c-2.05-.65-3.57-1.6-4.5-2.87-.93-1.24-1.41-2.62-1.41-4.08,0-1.18.25-2.22.76-3.12s1.18-1.69,2.03-2.31c.84-.65,1.8-1.13,2.93-1.46s2.31-.48,3.55-.48c.62,0,1.27.03,1.89.11.65.08,1.24.2,1.83.31.56.14,1.1.28,1.6.45s.9.34,1.18.51c.39.23.68.45.84.7.17.23.25.53.25.93v1.32c0,.59-.23.9-.65.9-.23,0-.59-.11-1.07-.34-1.6-.73-3.41-1.1-5.4-1.1-1.6,0-2.87.25-3.74.79s-1.32,1.35-1.32,2.51c0,.79.28,1.46.84,2s1.6,1.07,3.1,1.55l4,1.27c2.03.65,3.49,1.55,4.36,2.7s1.29,2.48,1.29,3.94c0,1.21-.25,2.31-.73,3.27-.51.96-1.18,1.8-2.05,2.48-.87.7-1.91,1.21-3.12,1.58-1.27.39-2.59.59-4.03.59Z"></path><path class="cls-3" d="m76.51,64.83c-9.26,6.84-22.72,10.47-34.28,10.47-16.21,0-30.82-6-41.86-15.96-.87-.79-.08-1.86.96-1.24,11.93,6.92,26.66,11.12,41.88,11.12,10.27,0,21.56-2.14,31.95-6.53,1.55-.7,2.87,1.01,1.35,2.14Zm3.86-4.39c-1.18-1.52-7.83-.73-10.84-.37-.9.11-1.04-.68-.23-1.27,5.29-3.72,13.99-2.65,15-1.41,1.01,1.27-.28,9.96-5.24,14.13-.76.65-1.49.31-1.15-.53,1.13-2.79,3.63-9.06,2.45-10.56Z"></path></g><g><path class="cls-2" d="m103.36,29.89c-.53-.2-.91-.43-1.14-.72-.23-.28-.35-.64-.35-1.07,0-.56.21-1,.62-1.33.41-.33.97-.5,1.66-.5.58,0,1.15.11,1.71.32v1.01c-.58-.18-1.11-.27-1.6-.27-.7,0-1.05.23-1.05.68,0,.17.06.3.18.41.12.11.35.22.68.34l.66.24c.55.2.94.44,1.18.71.23.27.35.62.35,1.05,0,.61-.22,1.09-.66,1.45-.44.35-1.04.53-1.81.53-.33,0-.66-.03-1-.09-.33-.06-.62-.15-.85-.25v-1.01c.3.09.61.16.95.21s.64.08.92.08c.35,0,.62-.06.81-.19.19-.13.28-.31.28-.55,0-.18-.06-.33-.17-.44s-.35-.23-.7-.36l-.68-.25Z"></path><path class="cls-2" d="m108.25,30.63c.02.39.14.67.36.85.21.17.55.26,1.01.26.4,0,.86-.07,1.39-.22v.86c-.21.11-.46.19-.74.25-.29.06-.59.09-.89.09-.75,0-1.33-.2-1.72-.61-.39-.41-.59-1.01-.59-1.8s.2-1.35.59-1.77c.39-.42.93-.63,1.63-.63.59,0,1.04.16,1.36.48.32.32.48.78.48,1.38,0,.13,0,.28-.03.44-.02.17-.04.3-.06.41h-2.76Zm.97-1.82c-.29,0-.52.09-.69.26-.17.17-.27.43-.29.76h1.74v-.15c0-.58-.26-.87-.76-.87Z"></path><path class="cls-2" d="m114.09,32.5c-.25.1-.52.15-.8.15-.8,0-1.2-.45-1.2-1.34v-5.3h1.3v5.19c0,.17.03.28.08.35.06.07.15.1.28.1.08,0,.2,0,.34-.03v.87Z"></path><path class="cls-2" d="m115.86,30.63c.02.39.14.67.36.85.21.17.55.26,1.01.26.4,0,.86-.07,1.39-.22v.86c-.21.11-.46.19-.74.25-.29.06-.59.09-.89.09-.75,0-1.33-.2-1.72-.61-.39-.41-.59-1.01-.59-1.8s.2-1.35.59-1.77c.39-.42.93-.63,1.63-.63.59,0,1.04.16,1.36.48.32.32.48.78.48,1.38,0,.13,0,.28-.03.44-.02.17-.04.3-.06.41h-2.76Zm.97-1.82c-.29,0-.52.09-.69.26-.17.17-.27.43-.29.76h1.74v-.15c0-.58-.26-.87-.76-.87Z"></path><path class="cls-2" d="m122.98,32.39c-.16.09-.35.17-.58.22s-.46.08-.7.08c-.72,0-1.28-.2-1.66-.6-.38-.4-.57-.98-.57-1.74s.2-1.34.6-1.76c.4-.42.96-.63,1.68-.63.43,0,.83.09,1.2.28v.86c-.35-.1-.67-.15-.96-.15-.42,0-.72.11-.92.32s-.29.54-.29,1v.12c0,.45.1.78.29.99s.49.32.89.32c.29,0,.63-.05,1.01-.16v.86Z"></path><path class="cls-2" d="m126.79,32.47c-.32.12-.68.19-1.08.19-.5,0-.88-.12-1.12-.36s-.36-.6-.36-1.1v-2.2h-.68v-.8l.72-.14.2-1.25h1.07v1.23h1.23v.96h-1.23v2.13c0,.19.05.32.14.4.09.08.25.12.48.12.18,0,.39-.02.63-.05v.87Z"></path></g><g><path class="cls-2" d="m110.65,51.67c-.94.36-1.96.55-3.08.55-1.94,0-3.42-.55-4.41-1.64-1-1.09-1.49-2.7-1.49-4.83s.52-3.73,1.55-4.84c1.03-1.11,2.52-1.67,4.45-1.67,1.05,0,1.98.16,2.81.49v.95c-1.03-.27-1.93-.4-2.68-.4-1.67,0-2.91.43-3.73,1.3-.82.87-1.23,2.18-1.23,3.93v.46c0,3.48,1.61,5.21,4.83,5.21.83,0,1.82-.15,2.99-.46v.95Z"></path><path class="cls-2" d="m116.74,52.29c-1.34,0-2.38-.43-3.12-1.29-.74-.86-1.11-2.05-1.11-3.58s.37-2.72,1.11-3.57c.74-.85,1.78-1.28,3.12-1.28s2.38.43,3.12,1.28c.74.85,1.11,2.04,1.11,3.57s-.37,2.73-1.11,3.58c-.74.86-1.78,1.29-3.12,1.29Zm0-.95c2.1,0,3.15-1.31,3.15-3.92s-1.05-3.9-3.15-3.9-3.15,1.3-3.15,3.9,1.05,3.92,3.15,3.92Z"></path><path class="cls-2" d="m130.28,52.01v-6.23c0-.79-.15-1.36-.46-1.72-.3-.36-.79-.54-1.46-.54-1.22,0-2.4.39-3.56,1.17v7.33h-1.04v-9.17h.91l.11,1.06c.6-.43,1.22-.75,1.88-.98.66-.23,1.29-.35,1.91-.35.89,0,1.56.23,2.03.7.47.47.7,1.16.7,2.07v6.67h-1.04Z"></path><path class="cls-2" d="m139.23,49.61c0-.33-.12-.61-.36-.84-.24-.23-.64-.45-1.19-.66l-1.66-.62c-1.3-.49-1.95-1.28-1.95-2.39,0-.75.28-1.36.85-1.83.57-.47,1.3-.7,2.22-.7.43,0,.87.05,1.33.15.46.1.89.23,1.28.4v.86c-.98-.32-1.87-.47-2.66-.47-.66,0-1.15.13-1.5.39-.34.26-.51.65-.51,1.16,0,.41.12.73.36.96.24.22.7.47,1.39.74l1.46.55c.68.26,1.18.57,1.49.94.31.37.46.83.46,1.38,0,.83-.3,1.48-.9,1.96-.6.48-1.42.72-2.45.72-1.11,0-2.1-.22-2.97-.66v-.86c1.08.39,2.1.58,3.04.58.74,0,1.31-.15,1.7-.45.39-.3.58-.73.58-1.3Z"></path><path class="cls-2" d="m149.02,52.01l-.11-1c-1.15.85-2.35,1.28-3.59,1.28-.88,0-1.55-.24-2.01-.71-.47-.47-.7-1.17-.7-2.08v-6.65h1.04v6.22c0,.8.15,1.38.46,1.74.3.36.78.54,1.44.54.6,0,1.15-.09,1.68-.27.52-.18,1.08-.48,1.68-.89v-7.33h1.04v9.17h-.91Z"></path><path class="cls-2" d="m155.7,51.94c-.32.08-.63.13-.93.13-.49,0-.87-.14-1.14-.43-.27-.29-.41-.68-.41-1.19v-11.92h1.04v11.9c0,.27.05.46.16.57.1.11.29.16.56.16.19,0,.44-.02.73-.05v.84Z"></path><path class="cls-2" d="m162.88,51.81c-.51.21-1.12.31-1.84.31s-1.26-.19-1.64-.57c-.38-.38-.57-.94-.57-1.67v-6.13h-1.71v-.73l1.75-.16.15-2.68h.86v2.66h2.92v.91h-2.92v6.07c0,.5.11.85.32,1.06.21.21.57.31,1.07.31s1.04-.07,1.62-.22v.84Z"></path><path class="cls-2" d="m165.85,40.87c-.24,0-.43-.07-.57-.22-.14-.15-.21-.34-.21-.58s.07-.44.21-.58c.14-.15.33-.22.57-.22s.43.07.57.22c.14.15.21.34.21.58s-.07.44-.21.58c-.14.15-.33.22-.57.22Zm-.53,11.14v-9.17h1.04v9.17h-1.04Z"></path><path class="cls-2" d="m176.22,52.01v-6.23c0-.79-.15-1.36-.46-1.72-.3-.36-.79-.54-1.46-.54-1.22,0-2.4.39-3.56,1.17v7.33h-1.04v-9.17h.91l.11,1.06c.6-.43,1.22-.75,1.88-.98.66-.23,1.29-.35,1.91-.35.89,0,1.56.23,2.03.7.47.47.7,1.16.7,2.07v6.67h-1.04Z"></path><path class="cls-2" d="m186.96,50.66c-.45.38-.95.67-1.49.89-.55.22-1.07.33-1.57.33-1.17,0-2.1-.42-2.81-1.25-.7-.83-1.06-1.94-1.06-3.31,0-1.47.35-2.63,1.05-3.48.7-.85,1.65-1.28,2.85-1.28s2.16.41,3.04,1.22l.11-.95h.91v8.75c0,1.43-.36,2.52-1.09,3.27-.73.75-1.79,1.12-3.17,1.12-1.15,0-2.15-.23-2.97-.69v-.86c1.02.4,1.99.6,2.92.6,1.13,0,1.96-.28,2.49-.84s.79-1.44.79-2.64v-.89Zm-2.83.27c.91,0,1.85-.39,2.83-1.17v-5.07c-.5-.41-.98-.71-1.44-.9-.46-.19-.95-.28-1.48-.28-.97,0-1.7.32-2.2.95-.49.63-.74,1.57-.74,2.81s.26,2.1.77,2.73c.52.63,1.27.94,2.25.94Z"></path><path class="cls-2" d="m103.06,66.93v5.14h-1.04v-12.63h4.36c1.15,0,2.08.34,2.76,1.02.69.68,1.03,1.59,1.03,2.73s-.34,2.04-1.03,2.72c-.69.68-1.61,1.02-2.76,1.02h-3.32Zm0-.97h3.28c1.8,0,2.7-.92,2.7-2.77s-.9-2.79-2.7-2.79h-3.28v5.56Z"></path><path class="cls-2" d="m118.25,72.07l-.09-1.06c-1.05.84-2.14,1.26-3.28,1.26-.84,0-1.5-.24-2-.72s-.74-1.12-.74-1.92c0-.89.3-1.59.91-2.1.61-.51,1.43-.77,2.48-.77.81,0,1.68.14,2.61.42v-1.53c0-.74-.18-1.27-.53-1.6-.35-.32-.94-.48-1.75-.48-.97,0-2.01.19-3.12.58v-.86c.46-.21.98-.37,1.57-.49.58-.12,1.15-.18,1.71-.18,1.07,0,1.86.22,2.38.67.52.45.77,1.13.77,2.04v6.73h-.93Zm-3.23-.75c.46,0,.96-.09,1.49-.28.53-.19,1.08-.45,1.62-.79v-2.28c-.81-.22-1.6-.33-2.37-.33-1.7,0-2.55.66-2.55,1.97,0,.56.15.98.46,1.28.3.29.75.44,1.35.44Z"></path><path class="cls-2" d="m122.43,72.07v-9.17h.91l.11,1.33c.46-.51.91-.87,1.36-1.08.44-.21.94-.32,1.5-.32.21,0,.46.02.75.05v.93c-.32-.02-.6-.04-.86-.04-.56,0-1.05.1-1.49.31-.43.21-.85.54-1.25,1v6.98h-1.04Z"></path><path class="cls-2" d="m134.17,71.87c-.51.21-1.12.31-1.84.31s-1.26-.19-1.64-.57c-.38-.38-.57-.94-.57-1.67v-6.13h-1.71v-.73l1.75-.16.15-2.68h.86v2.66h2.92v.91h-2.92v6.07c0,.5.11.85.32,1.06.21.21.57.31,1.07.31s1.04-.07,1.62-.22v.84Z"></path><path class="cls-2" d="m143.04,72.07v-6.23c0-.79-.15-1.36-.46-1.72-.3-.36-.79-.54-1.46-.54-1.22,0-2.4.39-3.56,1.17v7.33h-1.04v-9.17h.91l.11,1.06c.6-.43,1.22-.75,1.88-.98.66-.23,1.29-.35,1.91-.35.89,0,1.56.23,2.03.7.47.47.7,1.16.7,2.07v6.67h-1.04Z"></path><path class="cls-2" d="m147.91,67.66c.01,1.28.29,2.22.84,2.83.55.61,1.39.91,2.53.91,1.05,0,2.05-.21,3.01-.64v.86c-.86.49-1.89.73-3.08.73-1.45,0-2.53-.41-3.26-1.23-.73-.82-1.09-2.04-1.09-3.66,0-1.53.37-2.72,1.1-3.56.74-.84,1.77-1.27,3.09-1.27,1.11,0,1.95.32,2.54.95.59.63.88,1.54.88,2.72,0,.55-.04,1-.11,1.37h-6.45Zm3.04-4.1c-1.92,0-2.94,1.09-3.04,3.26h5.54c.01-.17.02-.37.02-.6,0-.88-.21-1.54-.64-1.99-.43-.45-1.05-.67-1.88-.67Z"></path><path class="cls-2" d="m157.21,72.07v-9.17h.91l.11,1.33c.46-.51.91-.87,1.36-1.08.44-.21.94-.32,1.5-.32.21,0,.46.02.75.05v.93c-.32-.02-.6-.04-.86-.04-.56,0-1.05.1-1.49.31-.43.21-.85.54-1.25,1v6.98h-1.04Z"></path></g></svg>