<?xml version="1.0" encoding="UTF-8"?>
<svg id="Layer_1" data-name="Layer 1" xmlns="http://www.w3.org/2000/svg" viewBox="0 0 188 100">
  <defs>
    <style>
      .cls-1 {
        fill: #15646c;
      }

      .cls-2 {
        fill: #0c7473;
      }

      .cls-3 {
        fill: #2bb34b;
      }
    </style>
  </defs>
  <path class="cls-1" d="m0,19.03c1.22-.33,2.48-.23,3.73-.3,8.31-.49,16.63-.94,24.95-1.4,11.82-.66,23.64-1.33,35.45-2,8-.45,16.01-.89,24.01-1.35.57-.03.94.02,1.23.66,3.89,8.7,7.83,17.39,11.75,26.08.14.31.3.58,0,.93-3.23,3.87-6.26,7.88-9.13,12.12-.28-.36-.17-.7-.17-1.01,0-5.22-.02-10.45.01-15.67,0-.79-.23-.98-1-.97-3.04.04-6.08.04-9.12,0-.78-.01-.99.21-.99.99.03,7.73.02,15.45.01,23.18,0,.33.1.68-.14,1.1-.82-.71-1.61-1.39-2.4-2.09-.47-.41-.93-.84-1.54-1.06-.29-.11-.5-.26-.45-.61.12-.9-.36-.67-.88-.49-3,1.02-6.04,1.67-9.23,1.12-1.99-.34-3.82-1.06-5.17-2.63-2.19-2.55-2.35-5.49-1.23-8.47,1.08-2.87,3.52-4.12,6.44-4.45,3.01-.34,5.86.28,8.56,1.62.68.34.88.29.86-.53-.05-1.97-.05-3.94,0-5.91.02-.67-.23-.92-.82-1.12-3.68-1.23-7.46-1.23-11.25-.91-3.28.28-6.41,1.18-9.21,2.97-4.72,3-7.02,7.3-6.63,12.9.39,5.6,3.39,9.4,8.46,11.64,3.62,1.6,7.46,2.08,11.38,1.98.8-.02,1.26.09,1.37,1,.08.69.53,1.26.97,1.8.78.97,1.56,1.94,2.39,3-2.88.91-5.65,1.79-8.42,2.66-12.66,3.97-25.33,7.93-37.99,11.9-.22.07-.51.04-.61.34h-.56c-.07-.27-.12-.54-.21-.8-1.13-3.08-2.25-6.16-3.4-9.23-1.3-3.48-2.61-6.95-3.91-10.43-.16-.51-.09-.72.56-.71,3.1.05,6.2,0,9.3.04.79.01,1.08-.14,1.06-1.01-.07-2.25,0-4.5-.04-6.75-.01-.69.15-.93.88-.9,1.75.07,3.51.01,5.25-.25,2.81-.42,5.49-1.18,7.83-2.91,4.81-3.55,4.76-11.88-1.15-14.77-2.52-1.23-5.18-1.86-7.95-2.03-4.91-.32-9.83-.07-14.74-.17-.86-.02-1.09.2-1.09,1.07.03,8.82.02,17.64.01,26.46,0,.31.1.65-.18,1.03-.37-1-.7-1.91-1.04-2.81-1.12-2.98-2.24-5.96-3.37-8.94-.08-.3-.15-.6-.25-.89-3.24-8.78-6.48-17.57-9.73-26.35-.8-2.16-1.63-4.31-2.45-6.46,0-.06,0-.13,0-.19Zm86.26,14.31c.47-.05.94-.07,1.4-.14,3.28-.54,5.31-2.82,5.35-6,.04-3.24-1.93-5.63-5.21-6.22-1.43-.25-2.87-.2-4.25.35-1.81.71-3.13,1.91-3.68,3.84-1.25,4.41,1.66,8.12,6.4,8.17Z"/>
  <path class="cls-3" d="m85.31,79.18c-2.32.03-4.18-.86-5.62-2.69-2.6-3.29-5.23-6.55-7.85-9.82-.86-1.08-.92-1.82-.19-2.99.77-1.25,1.86-2.18,3.07-2.98.66-.44,1.17-.12,1.67.33,2.68,2.35,5.37,4.69,8.07,7.03.97.84,1.22.8,1.84-.31,6.42-11.57,14.18-22.17,23.15-31.89.61-.66,1.29-1.15,2.14-1.46,2.32-.84,4.72-1.19,7.19-1.14.42,0,.83.09.99.55.16.45-.04.79-.38,1.07-8.11,6.81-13.38,15.8-18.84,24.63-3.42,5.53-6.71,11.15-9.76,16.89-.95,1.8-2.34,2.47-4.17,2.7-.43.05-.87.06-1.31.08Z"/>
  <path class="cls-2" d="m123.47,36.49c0-3.38.01-6.76-.01-10.14,0-.58.12-.81.76-.81,3.35.03,6.71-.02,10.06.02,5.49.08,8.81,3.34,9.31,9.12.16,1.81.14,3.63-.22,5.42-.89,4.44-4.15,7.12-8.98,7.25-3.41.09-6.83,0-10.24.04-.65,0-.68-.28-.68-.78.01-3.38,0-6.76,0-10.14Zm6.8-.02c0,1.75.02,3.5-.01,5.25-.01.58.17.78.75.73.84-.07,1.69-.07,2.53-.13,1.62-.11,2.55-1.06,2.97-2.56.33-1.19.34-2.41.33-3.63-.04-4.34-1.49-5.74-5.81-5.63-.03,0-.06,0-.09,0-.56-.08-.68.21-.67.71.02,1.75,0,3.5,0,5.25Z"/>
  <path class="cls-2" d="m161.9,31.93c-.41.02-.82,0-1.22.06-1.15.2-1.94.11-2.43-1.28-.51-1.46-3.16-1.91-4.43-1-1,.72-.87,1.94.28,2.45,1.09.49,2.29.63,3.44.91,1.37.33,2.72.71,4.03,1.25,2.56,1.05,4.24,2.82,4.34,5.68.1,2.87-1.2,5.05-3.68,6.51-1.15.68-2.43,1.01-3.75,1.15-2.41.25-4.82.22-7.17-.45-2.86-.8-5.01-3.47-5.25-6.43-.04-.49.09-.66.59-.68,1.72-.07,3.44-.16,5.16-.3.54-.04.68.17.81.62.63,2.31,2.02,3.26,4.36,3,1.19-.13,2.14-.92,2.29-1.9.15-.98-.44-1.83-1.65-2.32-1.43-.58-2.96-.78-4.43-1.23-1.36-.41-2.67-.9-3.85-1.7-3.14-2.15-3.39-6.56-.51-9.06,1.3-1.13,2.85-1.68,4.53-1.87,2.6-.29,5.19-.35,7.7.58,2.42.9,3.64,2.74,4.06,5.2.08.45-.03.63-.5.64-.91.02-1.81.09-2.72.14,0,0,0,0,0,.01Z"/>
  <path class="cls-2" d="m183.97,31.98c-.38,0-.75-.04-1.13,0-1.13.13-2.03.24-2.51-1.29-.45-1.44-3.19-1.89-4.43-.96-.97.72-.88,1.86.22,2.4.85.42,1.79.55,2.7.76,1.56.35,3.1.75,4.59,1.33,2.91,1.13,4.53,3.14,4.58,5.7.06,3.2-1.51,5.86-4.43,6.96-3.74,1.41-7.59,1.38-11.29-.1-2.67-1.07-3.72-3.46-4.14-6.17-.06-.42.17-.46.49-.48,1.81-.1,3.63-.2,5.44-.32.49-.03.54.24.63.61.6,2.31,2.1,3.31,4.44,3.01,1.17-.15,2.13-.99,2.25-1.95.12-.94-.47-1.76-1.64-2.25-1.19-.5-2.47-.69-3.7-1.03-1.48-.4-2.94-.87-4.26-1.69-3.83-2.39-3.83-7.53,0-9.93,1.13-.71,2.39-1.09,3.71-1.24,2.41-.26,4.81-.31,7.16.42,2.61.8,4.02,2.62,4.54,5.23.11.56,0,.8-.62.8-.87,0-1.75.09-2.62.14,0,.02,0,.04,0,.05Z"/>
  <path class="cls-2" d="m144.77,53.75c-.31,1.2-.68,2.39-.91,3.6-.14.73-.54.74-1.12.77-.65.04-.86-.23-.98-.81-.27-1.24-.62-2.46-1.1-3.67,0,1.25-.05,2.51.02,3.76.04.73-.34.73-.85.7-.47-.03-1,.17-.97-.68.06-1.87.03-3.75,0-5.62,0-.5.09-.71.66-.72,2.19-.05,2.19-.08,2.75,2.04.16.6.31,1.19.62,1.81.27-1.01.56-2.02.78-3.05.13-.57.35-.81.99-.8,2.1.02,2.1-.01,2.1,2.1,0,1.41-.05,2.81.02,4.22.04.84-.47.7-.96.71-.5.02-.91.04-.87-.7.06-1.21.02-2.43.02-3.65-.07,0-.13,0-.2,0Z"/>
  <path class="cls-2" d="m177.81,54.57c0-.92.04-1.84-.01-2.76-.03-.6.21-.85.74-.69.46.14,1.3-.5,1.34.44.08,2.03.03,4.06.03,6.09,0,.16,0,.31-.15.41-.4.26-2.02-.05-2.3-.46-.69-.98-1.37-1.97-2.22-2.89,0,.89-.04,1.79.01,2.68.03.6-.21.85-.75.7-.46-.13-1.3.49-1.34-.45-.08-2.03-.02-4.06-.02-6.09,0-.16,0-.31.16-.41.44-.28,1.96.06,2.28.52.68.99,1.36,1.98,2.04,2.97.06-.02.12-.04.19-.06Z"/>
  <path class="cls-2" d="m134.06,58.25c-2.34-.02-3.61-1.32-3.6-3.7.01-2.27,1.35-3.57,3.65-3.56,2.34,0,3.69,1.36,3.66,3.66-.03,2.33-1.35,3.61-3.71,3.6Zm1.47-3.63c.01-.67-.03-1.35-.69-1.73-.64-.37-1.27-.32-1.78.25-.56.62-.55,2.4.02,3,.52.56,1.17.6,1.79.23.66-.39.65-1.09.66-1.75Z"/>
  <path class="cls-2" d="m126.4,58.24c-1.72,0-2.8-.69-3.31-2.1-.57-1.57-.16-3.57.9-4.42,1.07-.86,3.17-1.01,4.36-.3.13.08.27.17.38.28.39.42.94.84.73,1.46-.07.22-.74.2-1.12.35-.51.19-.69-.14-.98-.45-.66-.72-1.79-.47-2.13.46-.28.76-.23,1.54,0,2.3.16.5.57.73,1.08.75.55.03.95-.2,1.22-.69.31-.58,1.04-.66,1.83-.17.66.41.08.85-.1,1.17-.62,1.11-1.68,1.41-2.88,1.36Z"/>
  <path class="cls-1" d="m102.2,61.52c1.57-2.53,3.15-5.05,4.81-7.71.84,1.85,1.59,3.51,2.35,5.18.11.25.18.46-.19.58-2.28.7-4.56,1.42-6.84,2.13-.04-.06-.08-.12-.12-.18Z"/>
  <path class="cls-2" d="m184.12,51.1c.87,0,1.75.04,2.62-.01.67-.04.7.34.65.81-.04.41.23.95-.59.98-1.6.06-1.6.1-1.6,1.72,0,.94-.02,1.87,0,2.81.02.5-.11.78-.67.7-.22-.03-.44-.03-.65,0-.68.1-.95-.12-.91-.86.06-1.18-.02-2.37.03-3.55.02-.64-.16-.94-.83-.84-.15.02-.32-.02-.47,0-.74.12-.94-.18-.95-.92,0-.73.25-.9.92-.86.81.05,1.62.01,2.44.01Z"/>
  <path class="cls-2" d="m155.17,54.58c0-.94.03-1.87-.01-2.81-.02-.54.18-.75.7-.68.03,0,.06,0,.09,0q1.41-.03,1.41,1.35c0,1,.06,2-.02,3-.06.81.25,1.03,1,.95.62-.06,1.25,0,1.87-.02.78-.03.51.54.53.91.01.36.2.84-.52.82-1.5-.03-3-.02-4.5,0-.48,0-.57-.22-.56-.63.02-.97,0-1.94,0-2.9Z"/>
  <path class="cls-2" d="m161.78,54.57c0-.9.02-1.81,0-2.71-.02-.53.1-.77.71-.77,1.52,0,1.52-.04,1.52,1.45,0,1.59-.03,3.18.02,4.77.02.68-.21.9-.85.81-.25-.03-.5-.03-.75,0-.49.05-.66-.15-.64-.64.03-.97,0-1.93,0-2.9Z"/>
  <path class="cls-2" d="m172.24,57.44c-.75-1.92-1.48-3.85-2.18-5.79-.16-.43-.38-.59-.82-.56-.44.03-.88.01-1.32,0-.27,0-.48.03-.6.33-.82,2.19-1.64,4.38-2.51,6.67.68,0,1.24,0,1.8,0,.18,0,.44.04.48-.18.29-1.52,1.49-.78,2.32-.94.19-.04.42.02.45.24.17,1.28,1.16.8,1.88.89.56.07.71-.1.49-.67Zm-3.91-2c-.35-.04-.41-.16-.31-.47.18-.52.33-1.06.49-1.58.07,0,.14,0,.2,0,.13.4.27.8.39,1.2.24.81.1.95-.77.85Z"/>
  <path class="cls-2" d="m152.12,51.14c-1.15-.06-2.31-.01-3.47-.05-.5-.02-.56.23-.55.63.02.97,0,1.94,0,2.9v1.97c0,1.62,0,1.61,1.62,1.52.43-.02.61-.13.61-.59,0-.62-.25-1.37.11-1.83.39-.49,1.18-.11,1.78-.22,1.22-.22,1.92-1.05,1.88-2.29-.04-1.23-.72-1.98-1.98-2.05Zm-1.21,2.95c-.64.07-.62-.35-.59-.8-.08-.46.04-.75.63-.7.52.04.98.14.96.76-.01.62-.51.69-1,.75Z"/>
  <path class="cls-1" d="m27.86,46.18c0-1.03.04-2.07-.01-3.1-.03-.64.2-.8.81-.78,1.19.04,2.38.05,3.54.39,1.75.52,2.61,1.61,2.64,3.31.03,1.9-.74,3.01-2.49,3.63-1.3.46-2.64.43-3.99.44-.46,0-.49-.26-.49-.61,0-1.09,0-2.19,0-3.28Z"/>
</svg>