<?xml version="1.0" encoding="UTF-8"?>
<svg id="Layer_1" data-name="Layer 1" xmlns="http://www.w3.org/2000/svg" viewBox="0 0 188 100">
  <defs>
    <style>
      .cls-1 {
        fill: #076832;
      }

      .cls-2 {
        fill: #73a684;
      }

      .cls-3 {
        fill: #fff;
      }

      .cls-4 {
        fill: #b1d3c0;
      }

      .cls-5 {
        fill: #8cad95;
      }

      .cls-6 {
        fill: #b2c3af;
      }

      .cls-7 {
        fill: #fdfefd;
      }

      .cls-8 {
        fill: #6a997e;
      }

      .cls-9 {
        fill: #6f9d7e;
      }

      .cls-10 {
        fill: #f89883;
      }

      .cls-11 {
        fill: #ef3c32;
      }

      .cls-12 {
        fill: #086732;
      }

      .cls-13 {
        fill: #448c5d;
      }

      .cls-14 {
        fill: #fdfdfd;
      }

      .cls-15 {
        fill: #589469;
      }

      .cls-16 {
        fill: #086832;
      }

      .cls-17 {
        fill: #f8a198;
      }

      .cls-18 {
        fill: #4f835f;
      }

      .cls-19 {
        fill: #7cad92;
      }

      .cls-20 {
        fill: #619677;
      }

      .cls-21 {
        fill: #fefffe;
      }

      .cls-22 {
        fill: #8eb096;
      }

      .cls-23 {
        fill: #7ba388;
      }

      .cls-24 {
        fill: #93b59c;
      }

      .cls-25 {
        fill: #91b49b;
      }

      .cls-26 {
        fill: #568f6a;
      }

      .cls-27 {
        fill: #508765;
      }

      .cls-28 {
        fill: #fefefe;
      }
    </style>
  </defs>
  <path class="cls-1" d="m53.61,100V0h80.58v100H53.61Z"/>
  <path class="cls-28" d="m92.9,82.55c1.8.35,2.77,1.16,2.87,2.41.2,2.46-.21,3.1-2.62,4.1,1.62,1.31,2.5,3.12,3.64,4.97h-2.79c-.65-.96-1.44-2.02-2.1-3.15-.72-1.23-1.67-1.79-3.17-1.39v4.54h-2.23c-.24-.68-.1-1.37-.1-2.06-.02-2.78-.01-5.56,0-8.34,0-.36-.1-.73.11-1.07h0c2.13-.19,4.27-.17,6.4-.01Z"/>
  <path class="cls-14" d="m109.26,90.31c.77-.08,1.45-.14,2.12-.21.85,1.93,1.7,2.47,3.35,2.15.78-.16,1.41-.56,1.5-1.4.1-.89-.6-1.17-1.3-1.37-.88-.25-1.78-.45-2.65-.74-1.89-.61-2.84-1.9-2.65-3.55.18-1.55,1.42-2.62,3.32-2.82.92-.1,1.83-.09,2.73.17,1.6.45,2.41,1.46,2.55,3.27h-2.2c-.9-1.44-1.73-1.84-3.13-1.42-.51.15-1.01.36-1.02,1-.01.57.4.85.88,1,1.19.37,2.42.64,3.58,1.08,2.29.86,3.01,3.55,1.49,5.43-.14.17-.29.33-.46.47-1.55,1.26-5.11,1.27-6.66.03-.9-.73-1.32-1.6-1.45-3.08Z"/>
  <path class="cls-7" d="m98.21,82.57c.73,0,1.46,0,2.19,0,.26,1.45.06,2.92.12,4.37.05,1.28-.09,2.56.08,3.84.26,1.06,1.02,1.45,2.02,1.49,1.01.04,1.9-.17,2.23-1.31.22-2.37.03-4.74.1-7.11.01-.43-.12-.88.11-1.29.73,0,1.46,0,2.19,0,.26,1.59.08,3.19.11,4.79.02,1.05.11,2.11-.07,3.16-.25,2.52-1.44,3.65-3.98,3.76-.77.04-1.54.03-2.3-.16-1.88-.46-2.74-1.67-2.84-4.03-.07-2.51-.17-5.02.05-7.53Z"/>
  <path class="cls-14" d="m74.84,91.01c1-3,1.9-5.7,2.81-8.44h2.49c-1.37,3.84-2.72,7.61-4.08,11.41-.86.17-1.69.1-2.58.06-1.36-3.8-2.71-7.59-4.09-11.44.92-.12,1.71-.09,2.55-.02.94,2.73,1.87,5.45,2.89,8.43Z"/>
  <path class="cls-5" d="m56.27,75.67c-.37-.23-.22-.59-.22-.9,0-23.83,0-47.65,0-71.48,0-.22.03-.44.04-.62.28-.33.64-.24.96-.24,24.75,0,49.5,0,74.24,0,.15,0,.29.02.44.03.05.16,0,.28-.15.36-.67.28-1.38.18-2.07.18-23.57,0-47.15,0-70.72,0-2.32,0-2.17-.15-2.17,2.14,0,22.69,0,45.38,0,68.07,0,.7.07,1.4-.1,2.09-.05.14-.13.26-.24.37Z"/>
  <path class="cls-7" d="m81.87,82.57h2.14v11.47h-2.14c-.23-.6-.1-1.23-.11-1.84-.02-2.85-.01-5.7,0-8.56,0-.36-.1-.73.11-1.07Z"/>
  <path class="cls-6" d="m56.27,75.67c0-.07,0-.14.01-.21.62-.47,1.34-.32,2.02-.32,19.15,0,38.3,0,57.44,0,4.7,0,9.41,0,14.11,0,.58,0,1.18-.07,1.74.19.15.08.19.2.13.36-10.81,0-21.62.02-32.44.02-13.97,0-27.95,0-41.92,0-.37,0-.73-.03-1.1-.05Z"/>
  <path class="cls-27" d="m131.73,75.69c0-.07,0-.15,0-.22-.49-.65-.32-1.42-.32-2.13,0-19.31,0-38.62,0-57.94,0-3.68,0-7.36,0-11.04,0-.58-.1-1.19.33-1.69.01-.07,0-.15,0-.22.4.25.24.66.24,1,0,23.74,0,47.48,0,71.23,0,.34.17.75-.24,1Z"/>
  <path class="cls-24" d="m81.87,82.57c0,3.82,0,7.64,0,11.47-.27-.1-.22-.35-.22-.56,0-3.45,0-6.9,0-10.35,0-.21-.05-.45.22-.56Z"/>
  <path class="cls-15" d="m86.51,82.57c0,3.82,0,7.65,0,11.47-.31-.2-.22-.52-.22-.8,0-3.29,0-6.59,0-9.88,0-.28-.09-.6.22-.79Z"/>
  <path class="cls-2" d="m105.05,82.57c0,2.34,0,4.68-.01,7.02,0,.46.1.95-.2,1.38,0-2.61,0-5.22-.01-7.83,0-.21-.03-.45.22-.57Z"/>
  <path class="cls-18" d="m100.59,90.78c-.38-1.22-.14-2.47-.18-3.7-.04-1.5-.02-3.01-.02-4.51.18.1.23.27.23.46,0,2.59-.02,5.17-.03,7.76Z"/>
  <path class="cls-9" d="m107.28,90.52c-.01-2.65-.03-5.3-.04-7.95.06.04.16.09.16.13.05,2.61.26,5.22-.12,7.82Z"/>
  <path class="cls-22" d="m98.21,82.57c-.02,2.51-.04,5.02-.05,7.53-.23-2.51-.38-5.02.05-7.53Z"/>
  <path class="cls-13" d="m92.9,82.55c-2.13,0-4.27,0-6.4,0,.47-.42,1.05-.22,1.56-.2,1.61.08,3.25-.28,4.85.19Z"/>
  <path class="cls-12" d="m88.95,84.58c.98-.02,1.96-.04,2.94-.06.72-.01,1.31.22,1.53.96.23.75.02,1.36-.73,1.72-1.23.23-2.46.02-3.76.12-.14-.97-.21-1.86.02-2.75Z"/>
  <path class="cls-20" d="m88.95,84.58v2.54c1.3.25,2.53.04,3.74.09-1.23.53-2.51.09-3.91.31.01-1.07-.27-2.01.17-2.94Z"/>
  <path class="cls-3" d="m131.73,2.68c0,10.63.02,21.25.02,31.88,0,13.2,0,26.4,0,39.6,0,.44-.02.88-.03,1.32-9.15,0-18.31.02-27.46.02-15.63,0-31.25,0-46.88,0-.37,0-.73-.02-1.1-.04,0-13.24-.02-26.49-.02-39.73,0-10.56,0-21.12,0-31.68,0-.43-.09-.88.13-1.36.27-.02.55-.05.84-.05,24.61,0,49.23,0,73.84,0,.22,0,.44.02.66.03Z"/>
  <path class="cls-11" d="m93.95,7.05c10.39-.67,19.54,8.49,20.19,18.56.8,12.25-9.08,21.71-20.12,21.71-10.43,0-20.6-8.3-20.27-20.91.3-11.77,10.51-20.02,20.2-19.36Z"/>
  <path class="cls-1" d="m98.23,63.81c-.12,1.4-.38,2.77-.91,4.07-1.08,2.66-3.14,4.04-6.13,3.83-2.26-.15-4.32-1.6-5.2-4.12-.88-2.51-.85-5.1-.82-7.71.03-2.01.4-3.92,1.27-5.72,1.07-2.22,2.91-3.22,5.34-3.21,2.43.02,4.24,1.08,5.31,3.28.71,1.47,1.04,3.05,1.15,4.68.13,1.63.13,3.26,0,4.89Z"/>
  <path class="cls-12" d="m113.92,64.06c-.23,2.18-.66,4.29-2.23,5.96-.92.98-2.07,1.32-3.4,1.56-2.09.38-3.73-.26-5.13-1.65-1.38-1.36-1.79-3.17-2.12-5.03-.27-1.5-.11-2.99-.19-4.48-.11-2.01.35-3.93,1.09-5.77.99-2.49,2.88-3.69,5.56-3.69,2.64,0,4.44,1.28,5.49,3.66.54,1.22.8,2.51.92,3.84.12,1.86.11,3.73,0,5.59Z"/>
  <path class="cls-16" d="m81.84,71.28h-3.71c-.24-.37-.12-.78-.12-1.17-.01-4.03,0-8.05-.01-12.08,0-.35.14-.73-.11-1.06-1.48,1.06-2.94,2.14-4.83,2.64v-3.51c1.31-.53,2.55-1.29,3.65-2.26.5-.44,1.07-.87,1.28-1.49.47-1.35,1.43-1.56,2.65-1.4.4.05.8.03,1.21.05.2.26.12.57.12.85,0,6.19,0,12.39,0,18.58,0,.28.09.59-.13.84Z"/>
  <path class="cls-4" d="m81.84,71.28c0-6.76.01-13.52.02-20.28.37.22.23.59.23.9,0,6.17,0,12.33,0,18.5,0,.3.15.68-.25.88Z"/>
  <path class="cls-19" d="m77.89,56.97c.46.2.21.59.21.88.02,4.48.03,8.96.03,13.44-.45-.29-.22-.73-.23-1.1-.02-4.41-.01-8.81-.01-13.22Z"/>
  <path class="cls-8" d="m113.92,64.06c0-1.86,0-3.73,0-5.59.32,1.86.31,3.73,0,5.59Z"/>
  <path class="cls-25" d="m98.23,63.81c0-1.63,0-3.26,0-4.89.33,1.63.32,3.26,0,4.89Z"/>
  <path class="cls-3" d="m99.72,22.25c3-3.66,8.35-2.35,9.95,1.88,1.49,3.93,1.58,7.98-.73,11.65-2.35,3.73-6.47,3.85-9.4.5-.07-.08-.16-.14-.25-.21-.34.17-.16.46-.16.68,0,1.65,0,1.68-1.7,1.64-.7-.02-1.45.23-2.12-.19-.13-.28-.08-.58-.08-.87,0-7.52,0-15.05,0-22.57,0-.29-.06-.59.09-.86h0c1.3-.23,2.61-.04,3.88-.1.33.46.19.92.2,1.34.02,2.08,0,4.17.02,6.25,0,.28-.33.76.29.87Z"/>
  <path class="cls-21" d="m92.88,20.6c-1.16,3.29-2.29,6.46-3.41,9.64-.85,2.39-1.72,4.77-2.52,7.17-.25.74-.58,1.03-1.41,1.02-2.63-.05-2.62-.01-3.51-2.52-1.73-4.84-3.48-9.68-5.21-14.52-.08-.23-.27-.45-.14-.79h4.26c1.24,3.81,2.58,7.63,3.75,11.78,1.34-4.09,2.6-7.93,3.86-11.79h4.32Z"/>
  <path class="cls-10" d="m95.32,13.9c0,8.1-.01,16.2-.02,24.3-.31-.3-.18-.69-.19-1.04,0-7.41,0-14.82,0-22.23,0-.35-.15-.74.2-1.03Z"/>
  <path class="cls-17" d="m99.72,22.25c-.7.22-.39-.37-.39-.56-.03-2.13-.01-4.26-.01-6.39,0-.4,0-.8,0-1.4-1.37,0-2.67,0-3.98,0,1.32-.48,2.66-.06,3.92-.22.4.43.27.85.27,1.24.01,2.1,0,4.19.01,6.29,0,.35-.14.74.18,1.04Z"/>
  <path class="cls-3" d="m89.35,58.26c-.02-.88.15-1.73.49-2.54.36-.89.94-1.48,1.97-1.46.99.02,1.51.64,1.82,1.5.15.41.29.84.34,1.27.35,2.87.33,5.74,0,8.61-.19,1.72-1.02,2.74-2.16,2.79-1.16.05-1.94-.85-2.29-2.64-.08-.43-.12-.87-.18-1.31-.12-2.07-.13-4.14,0-6.21Z"/>
  <path class="cls-23" d="m89.35,58.26c0,2.07,0,4.14,0,6.21-.31-2.07-.33-4.14,0-6.21Z"/>
  <path class="cls-3" d="m105.02,58.71c.1-.98.16-1.98.5-2.91.32-.88.87-1.53,1.91-1.55,1.05-.02,1.64.61,1.92,1.51.78,2.53.74,5.14.43,7.72-.12,1.01.09,2.03-.27,3.03-.36,1.01-.84,1.84-2,1.89-1.19.05-1.73-.78-2.06-1.79-.28-.84-.35-1.72-.43-2.59-.14-1.77-.14-3.54,0-5.31Z"/>
  <path class="cls-26" d="m105.02,58.71c0,1.77,0,3.54,0,5.31-.33-1.77-.34-3.54,0-5.31Z"/>
  <path class="cls-11" d="m106.15,30.03c.01.73.1,2.01-.57,3.2-1.16,2.07-3.45,2.29-4.97.46-1.66-2-1.81-6.25-.33-8.49,1.33-2.02,4.04-1.9,5.25.22.55.97.62,1.43.62,4.61Z"/>
</svg>